/* XPM */
static char *result[] = {
/* columns rows colors chars-per-pixel */
"64 64 20 1 ",
"  c #08080D",
". c #171723",
"X c #1C1C27",
"o c #000334",
"O c #1D1D39",
"+ c #222232",
"@ c #323243",
"# c #1F0D60",
"$ c #232774",
"% c #881422",
"& c #A11324",
"* c #CD2C3F",
"= c #B47D55",
"- c #C9A179",
"; c #333892",
": c #878790",
"> c #A0A0AD",
", c #B5A4A4",
"< c white",
"1 c None",
/* pixels */
"1111111111111111111111111111111111111111111111111111111111111111",
"111111111111111111111111111111..11111111111111111111111111111111",
"11111111111111111111111111111.  11111111111111111111111111111111",
"11111111111111111111111111111 . 11111111111111111111111111111111",
"111111111111111111111111111111  ,1111111111111111111111111111111",
"11111111111111111111111111111 1,*11&1111111111111111111111111111",
"1111111111111111111111111111111 &*1&*111111111111111111111111111",
"111111111111111111111111111111 . * +*111111111111111111111111111",
"111111111111111111111111111111.  &* &111111111111111111111111111",
"111111111111111111111111111111  &<&&&111111111111111111111111111",
"111111111111111111111111111111 =&<<&<111111111111111111111111111",
"111111111111111111111111111111  &&*&&111111111111111111111111111",
"1111111111111111111111111111111 %&&&%111111111111111111111111111",
"111111111111111111111111111111  -%%%%111111111111111111111111111",
"111111111111111111111111111111;; -%%%111111111111111111111111111",
"1111111111111111111111111111XX;; -- 1111111111111111111111111111",
"111111111111111111111111111@@X;;;   ;111111111111111111111111111",
"111111111111111111111111111@@@X;;   ;111111111111111111111111111",
"11111111111111111111111111@@@@XX$;  ;;11111111111111111111111111",
"1111111111111111111111111@@@@@X;$;; ;;11111111111111111111111111",
"1111111111111111111111111@@@@XX;;$; ;;11111111111111111111111111",
"1111111111111111111111111@@@XX$;$;$ ;$11111111111111111111111111",
"111111111111111111111111@@@XX$$$;; ;;$11111111111111111111111111",
"111111111111111111111111@@@XX$$$;; ;;@@1111111111111111111111111",
"111111111111111111111111@@XX11$$;$ $$@@1111111111111111111111111",
"111111111111111111111111@@X 11$$$; ooX@@111111111111111111111111",
"111111111111111111111111@XX 11$$$$oooX@@111111111111111111111111",
"111111111111111111111111@X   1:>:ooo>XXX 11111111111111111111111",
"111111111111111111111111@X   -:#ooo::XX   1111111111111111111111",
"1111111111111111111111111@  ---oo$$$$XX   1111111111111111111111",
"1111111111111111111111111X  -===;;;;;;11=---11111111111111111111",
"1111111111111111111111111X##oo$$;;; $;111-=111111111111111111111",
"111111111111111111111111##ooo;$$;;; $;;1111111111111111111111111",
"11111111111111111111111#ooo;;;;;;;$  $;1111111111111111111111111",
"111111111111111111111##ooo$;;;;;;;$  $$1111111111111111111111111",
"11111111111111111111#ooo11;;;;;;;;$   $1111111111111111111111111",
"111111111111111111##oo1111;;;;;;;;$ O $$111111111111111111111111",
"1111111111111111##oo11111;;;;;;;;$$ OO $111111111111111111111111",
"11111111111111##ooo111111$$;;;;;;$$ OO  111111111111111111111111",
"11111111111####oo11111111$$$$;;;$$$ OOO 111111111111111111111111",
"11111111111oooo11111111111  $$$;$$$ OOOO111111111111111111111111",
"11111111111111111111111111   $$$$$ OOOO 111111111111111111111111",
"11111111111111111111111111 O  $$   OOO  111111111111111111111111",
"1111111111111111111111111  OO  $  OO    111111111111111111111111",
"1111111111111111111111111   OO         1111111111111111111111111",
"1111111111111111111111111   OOO        1111111111111111111111111",
"1111111111111111111111111       11:   11111111111111111111111111",
"1111111111111111111111111:     111:: 111111111111111111111111111",
"1111111111111111111111111>:   111>>::111111111111111111111111111",
"1111111111111111111111111>::11111>>:1111111111111111111111111111",
"1111111111111111111111111>::11111>>:1111111111111111111111111111",
"1111111111111111111111111>::11111>::1111111111111111111111111111",
"1111111111111111111111111:::11111:::1111111111111111111111111111",
"1111111111111111111111111::111111::11111111111111111111111111111",
"1111111111111111111111111: 111111::11111111111111111111111111111",
"1111111111111111111111111> 11111:: >1111111111111111111111111111",
"111111111111111111111111 >:11111  :::111111111111111111111111111",
"1111111111111111111111111111111111111111111111111111111111111111",
"1111111111111111111111111111111111111111111111111111111111111111",
"1111111111111111111111111111111111111111111111111111111111111111",
"1111111111111111111111111111111111111111111111111111111111111111",
"1111111111111111111111111111111111111111111111111111111111111111",
"1111111111111111111111111111111111111111111111111111111111111111",
"1111111111111111111111111111111111111111111111111111111111111111"
};
